<svg xmlns="http://www.w3.org/2000/svg" xmlns:xlink="http://www.w3.org/1999/xlink" version="1.1">
  <path fill="none" stroke="#c74440" paint-order="fill stroke markers" d=" M 854.54 337.5 L 854.54 337.5 L 854.2552560471621 331.4607304070161 L 853.401853556307 325.44935446272734 L 851.9822780077582 319.4936735918127 L 850.0006631349257 313.62130506683343 L 847.4627778528932 307.859590671015 L 844.3760080169118 302.2355062449914 L 840.7493330690401 296.7755724077625 L 836.5932976475029 291.5057667383622 L 831.9199782494138 286.45143770006024 L 826.7429450533065 281.63722058335065 L 821.0772190233733 277.0869557375213 L 814.9392244323693 272.8236093532797 L 808.3467369547683 268.86919705075275 L 801.318827495902 265.2447105182037 L 793.8758019364154 261.97004743705395 L 786.0391369844242 259.0639449182875 L 777.8314123401688 256.54391666408196 L 769.276239389739 254.42619405660025 L 760.3981866555142 252.72567136331264 L 751.2227022413169 251.4558552350553 L 741.7760335198609 250.62881865929938 L 732.0851443188774 250.25515951685702 L 722.1776298702744 250.34396387552647 L 712.0816297938245 250.90277413902476 L 701.825739393129 251.9375621540317 L 691.4389195469985 253.45270736230407 L 680.9504054838466 255.4509800686883 L 670.3896147302562 257.9335298794894 L 659.7860545274974 260.8998793491205 L 649.1692290114538 264.3479228562956 L 638.568546452161 268.27393071429873 L 628.0132268489459 272.672558503121 L 617.5322101760052 277.53686159455435 L 607.1540655711603 282.85831482471235 L 596.9069017575027 288.6268372519893 L 586.8182789836712 294.83082192219445 L 576.9151227636478 301.457170546579 L 564.0445995459017 310.92396058099007 L 551.6101601385466 321.07723092513965 L 539.6688112812817 331.8743828666327 L 528.2743828666327 343.2688112812817 L 517.4772309251397 355.21016013854654 L 507.3239605809901 367.6445995459017 L 497.85717054657897 380.5151227636478 L 489.1152206019439 393.7618615080673 L 483.05500752669894 403.9063561171656 L 477.43429319539473 414.20027132292665 L 472.2641795039766 424.61585437284134 L 467.5542318632336 435.12483320700403 L 463.3124510930327 445.6985050555124 L 459.5452503516088 456.3078264597508 L 456.25743717277436 466.92350443038566 L 453.4522006675713 477.5160884512494 L 451.13110393036646 488.0560630355718 L 449.29408167274556 498.5139405392286 L 447.9394430918318 508.86035393484667 L 447.0638799629169 519.0661492507012 L 446.6624799295776 529.102477379405 L 446.7287449478266 538.940884963381 L 447.2546148243588 548.5534040670406 L 448.23049577266374 557.912640349457 L 449.6452938947202 566.9918594560911 L 451.48645348023786 575.7650713538071 L 453.74 584.2071123399683 L 456.39058765484754 592.2937244638238 L 459.42155132727515 600.0016321066438 L 462.8149627685263 607.3086154761336 L 466.55169084052955 614.1935807804925 L 470.61146561904843 620.6366268580905 L 474.9729461520681 626.619108050032 L 479.6137916557505 632.1236931148821 L 484.51073591929753 637.134419997457 L 489.63966467979634 641.6367462768088 L 494.97569571862164 645.6175951323414 L 500.49326142227113 649.0653966812907 L 506.1661935426188 651.9701245555839 L 511.9678098845461 654.3233276012912 L 517.8710026427408 656.1181565994591 L 523.8483281041813 657.3493859229998 L 529.872097428455 658.013430060495 L 535.9144682146158 658.1083549541471 L 541.9475365607623 657.6338841156802 L 547.9434293209546 656.5913995006601 L 553.8743962634438 654.9839371384438 L 559.7129018345126 652.8161775317094 L 565.4317162334835 650.0944308562238 L 571.0040055066531 646.8266170081027 L 576.4034203710532 643.0222405622726 L 581.6041834829944 638.6923607220915 L 586.5811748713289 633.8495563560775 L 591.310015261236 628.5078862333788 L 595.7671470210776 622.6828445849517 L 599.9299124724789 616.3913121323296 L 603.7766293122178 609.6515027403428 L 607.2866629037446 602.4829058641141 L 610.4404952061687 594.9062249740791 L 613.2197901192973 586.943312155625 L 615.6074550347807 578.6170990921437 L 617.5876983955471 569.951524651841 L 619.1460830784791 560.971459309481 L 620.2695754286453 551.7026266443444 L 620.9465897873038 542.1715221650047 L 621.167028370309 532.405329720056 L 620.9223163684297 522.4318357616216 L 620.2054321563586 512.279341735323 L 619.0109325128502 501.97657487634865 L 617.3349727703716 491.5525976963569 L 615.1753218288766 481.0367164500943 L 612.5313719847345 470.45838887386674 L 609.4041435424384 459.8471314903098 L 605.7962841933962 449.2324267752655 L 601.7120631628562 438.6436304830031 L 597.1573601427489 428.10987942549684 L 592.1396490449097 417.66 L 586.667976625716 407.3224177567512 L 580.7529360495762 397.1250682952995 L 574.4066354749071 387.0953097736829 L 567.6426617621531 377.2598373095044 L 558.0004860879197 364.49282862174704 L 547.6820910593271 352.17643631169074 L 536.7310997118777 340.36690178228383 L 525.1950797170299 329.11721355350403 L 513.1252823515367 318.4768150867418 L 500.5763603088258 308.4913329827578 L 487.60606595017254 299.2023270918778 L 477.63813849193275 292.71522060194394 L 467.49364388283414 286.65500752669885 L 457.1997286770734 281.0342931953948 L 446.7841456271586 275.8641795039767 L 436.27516679299583 271.1542318632336 L 425.70149494448765 266.91245109303264 L 415.0921735402494 263.1452503516088 L 404.4764955696145 259.8574371727745 L 393.8839115487506 257.0522006675713 L 383.3439369644285 254.73110393036654 L 372.8860594607714 252.89408167274564 L 362.53964606515314 251.53944309183186 L 352.3338507492989 250.66387996291684 L 342.29752262059503 250.26247992957764 L 332.45911503661904 250.32874494782664 L 322.8465959329595 250.85461482435886 L 313.487359650543 251.83049577266377 L 304.4081405439088 253.24529389472025 L 295.6349286461931 255.08645348023794 L 287.1928876600318 257.34000000000003 L 279.1062755361761 259.99058765484756 L 271.398367893356 263.0215513272752 L 264.09138452386645 266.41496276852627 L 257.20641921950727 270.1516908405296 L 250.76337314190926 274.21146561904857 L 244.78089194996804 278.57294615206814 L 239.2763068851178 283.2137916557504 L 234.26558000254295 288.11073591929755 L 229.7632537231912 293.2396646797962 L 225.78240486765853 298.57569571862166 L 222.33460331870916 304.09326142227115 L 219.42987544441613 309.76619354261885 L 217.07667239870867 315.56780988454614 L 215.28184340054088 321.47100264274087 L 214.05061407700015 327.4483281041813 L 213.38656993950494 333.47209742845513 L 213.2916450458528 339.5144682146158 L 213.76611588431973 345.54753656076235 L 214.80860049933978 351.54342932095454 L 216.4160628615561 357.47439626344385 L 218.58382246829055 363.31290183451273 L 221.30556914377613 369.0317162334834 L 224.5733829918973 374.6040055066531 L 228.37775943772738 380.00342037105327 L 232.70763927790833 385.20418348299427 L 237.55044364392253 390.1811748713289 L 242.8921137666211 394.9100152612361 L 248.7171554150482 399.3671470210776 L 255.00868786767066 403.52991247247894 L 261.74849725965726 407.37662931221786 L 268.9170941358859 410.8866629037447 L 276.49377502592114 414.0404952061687 L 284.4566878443751 416.81979011929747 L 292.7829009078563 419.2074550347808 L 301.4484753481592 421.18769839554705 L 310.4285406905191 422.74608307847916 L 319.69737335565566 423.8695754286454 L 329.22847783499515 424.5465897873037 L 338.9946702799437 424.76702837030905 L 348.96816423837817 424.52231636842964 L 359.12065826467693 423.8054321563586 L 369.42342512365104 422.61093251285024 L 379.847402303643 420.9349727703716 L 390.36328354990565 418.7753218288766 L 400.941611126133 416.1313719847346 L 411.5528685096901 413.00414354243844 L 422.16757322473444 409.3962841933963 L 432.7563695169967 405.31206316285625 L 443.2901205745033 400.7573601427487 L 453.7399999999999 395.7396490449098 L 464.0775822432488 390.2679766257161 L 474.27493170470063 384.35293604957604 L 484.30469022631706 378.0066354749071 L 494.1401626904956 371.2426617621532 L 506.90717137825294 361.6004860879198 L 519.2235636883092 351.2820910593272 L 531.0330982177163 340.33109971187764 L 542.2827864464961 328.7950797170298 L 552.9231849132582 316.72528235153686 L 562.9086670172421 304.1763603088259 L 572.1976729081223 291.2060659501724 L 578.6847793980561 281.2381384919328 L 584.7449924733011 271.09364388283444 L 590.3657068046053 260.7997286770732 L 595.5358204960232 250.38414562715872 L 600.2457681367663 239.87516679299625 L 604.4875489069674 229.30149494448744 L 608.2547496483912 218.69217354024926 L 611.5425628272255 208.0764955696145 L 614.3477993324287 197.48391154875043 L 616.6688960696334 186.94393696442836 L 618.5059183272543 176.48605946077151 L 619.8605569081683 166.139646065153 L 620.7361200370831 155.9338507492988 L 621.1375200704224 145.89752262059505 L 621.0712550521733 136.0591150366189 L 620.5453851756412 126.4465959329599 L 619.5695042273362 117.08735965054314 L 618.1547061052797 108.00814054390912 L 616.3135465197622 99.23492864619334 L 614.06 90.79288766003185 L 611.4094123451525 82.70627553617646 L 608.378448672725 74.99836789335643 L 604.9850372314737 67.69138452386665 L 601.2483091594705 60.80641921950746 L 597.1885343809516 54.36337314190962 L 592.8270538479319 48.380891949968145 L 588.1862083442495 42.87630688511797 L 583.2892640807025 37.86558000254308 L 578.1603353202037 33.36325372319129 L 572.8243042813784 29.382404867658693 L 567.3067385777289 25.934603318709264 L 561.6338064573811 23.029875444416234 L 555.8321901154538 20.676672398708774 L 549.9289973572593 18.881843400541015 L 543.9516718958187 17.650614077000228 L 537.9279025715449 16.98656993950499 L 531.8855317853843 16.891645045852897 L 525.8524634392377 17.36611588431981 L 519.8565706790455 18.408600499339855 L 513.9256037365564 20.01606286155618 L 508.0870981654873 22.183822468290714 L 502.3682837665166 24.905569143776233 L 496.79599449334694 28.173382991897142 L 491.3965796289467 31.9777594377274 L 486.1958165170057 36.30763927790838 L 481.21882512867114 41.15044364392236 L 476.4899847387639 46.49211376662117 L 472.03285297892245 52.317155415048205 L 467.8700875275209 58.60868786767071 L 464.0233706877821 65.34849725965728 L 460.51333709625527 72.51709413588594 L 457.35950479383115 80.09377502592122 L 454.5802098807025 88.05668784437523 L 452.1925449652191 96.38290090785631 L 450.2123016044528 105.0484753481594 L 448.6539169215208 114.02854069051921 L 447.53042457135456 123.29737335565562 L 446.8534102126962 132.82847783499517 L 446.6329716296909 142.59467027994378 L 446.8776836315702 152.56816423837768 L 447.59456784364136 162.7206582646769 L 448.78906748714974 173.023425123651 L 450.46502722962816 183.44740230364255 L 452.6246781711234 193.96328354990567 L 455.2686280152653 204.54161112613292 L 458.39585645756137 215.15286850968965 L 462.0037158066036 225.76757322473452 L 466.0879368371437 236.35636951699678 L 470.6426398572512 246.89012057450333 L 475.66035095509017 257.33999999999986 L 481.1320233742839 267.6775822432488 L 487.0470639504239 277.87493170470066 L 493.3933645250928 287.90469022631703 L 500.1573382378468 297.74016269049554 L 509.7995139120801 310.5071713782529 L 520.1179089406728 322.82356368830926 L 531.0689002881222 334.63309821771634 L 542.6049202829697 345.88278644649574 L 554.6747176484631 356.5231849132582 L 567.2236396911741 366.50866701724215 L 580.1939340498276 375.7976729081223 L 590.1618615080672 382.28477939805606 L 600.3063561171655 388.34499247330103 L 610.6002713229268 393.9657068046053 L 621.0158543728412 399.1358204960233 L 631.5248332070038 403.8457681367663 L 642.0985050555124 408.0875489069674 L 652.7078264597508 411.85474964839125 L 663.3235044303855 415.1425628272255 L 673.9160884512496 417.94779933242876 L 684.4560630355717 420.26889606963346 L 694.9139405392285 422.10591832725436 L 705.260353934847 423.4605569081682 L 715.4661492507012 424.33612003708316 L 725.5024773794048 424.7375200704224 L 735.340884963381 424.67125505217336 L 744.9534040670402 424.1453851756412 L 754.312640349457 423.16950422733623 L 763.3918594560909 421.7547061052798 L 772.1650713538066 419.9135465197622 L 780.6071123399681 417.65999999999997 L 788.6937244638236 415.00941234515255 L 796.4016321066435 411.978448672725 L 803.7086154761334 408.58503723147373 L 810.5935807804925 404.84830915947055 L 817.0366268580904 400.78853438095166 L 823.0191080500318 396.42705384793186 L 828.5236931148821 391.7862083442496 L 833.534419997457 386.88926408070256 L 838.0367462768088 381.76033532020375 L 842.0175951323414 376.4243042813784 L 845.4653966812907 370.906738577729 L 848.3701245555839 365.23380645738115 L 850.7233276012913 359.432190115454 L 852.5181565994591 353.5289973572593 L 853.7493859229997 347.5516718958187 L 854.413430060495 341.527902571545 L 854.54 337.5000000000001" stroke-linecap="round" stroke-linejoin="round" stroke-miterlimit="10" stroke-width="2.5" stroke-opacity="0.7" stroke-dasharray=""/>
</svg>
